<?xml version="1.0" encoding="iso-8859-1"?>
<!-- Generator: Adobe Illustrator 19.0.0, SVG Export Plug-In . SVG Version: 6.00 Build 0)  -->
<svg version="1.1" id="Capa_1" xmlns="http://www.w3.org/2000/svg" xmlns:xlink="http://www.w3.org/1999/xlink" x="0px" y="0px"
	 viewBox="0 0 512 512" style="enable-background:new 0 0 512 512;" xml:space="preserve">
<g>
	<g>
		<g>
			<path d="M445.878,256c43.083-26.972,57.441-83.632,31.825-128c-25.7-44.512-81.823-60.312-126.765-36.439
				C349.123,40.764,307.232,0,256,0s-93.123,40.764-94.938,91.561C116.048,67.651,59.95,83.569,34.298,128
				C8.681,172.368,23.039,229.028,66.122,256c-43.083,26.972-57.441,83.632-31.825,128c25.699,44.511,81.82,60.312,126.765,36.439
				C162.877,471.236,204.768,512,256,512s93.123-40.764,94.938-91.561c44.97,23.888,101.087,8.035,126.764-36.439
				C503.319,339.632,488.961,282.972,445.878,256z M443.06,364c-15.201,26.33-48.808,35.329-75.131,20.131
				c-7.3-4.215-17.842-12.395-28.923-22.445c-14.378-13.041-37.081,0.11-32.983,19.044C309.186,395.347,311,408.566,311,417
				c0,30.327-24.673,55-55,55c-30.327,0-55-24.673-55-55c0-8.434,1.814-21.653,4.977-36.27
				c4.138-19.123-18.758-31.948-32.985-19.044c-11.08,10.049-21.622,18.23-28.923,22.445c-26.328,15.2-59.932,6.194-75.131-20.131
				c-15.163-26.264-6.132-59.968,20.132-75.131c7.301-4.216,19.656-9.255,33.899-13.825c18.482-5.931,18.446-32.167,0-38.087
				c-14.241-4.57-26.596-9.609-33.899-13.825C62.806,207.968,53.775,174.264,68.939,148c15.2-26.328,48.807-35.33,75.131-20.131
				c7.302,4.216,17.844,12.397,28.923,22.445c14.368,13.032,37.086-0.09,32.984-19.044C202.814,116.653,201,103.433,201,95
				c0-30.327,24.673-55,55-55c30.327,0,55,24.673,55,55c0,8.433-1.814,21.653-4.977,36.269
				c-4.106,18.973,18.634,32.058,32.984,19.044c11.079-10.048,21.621-18.229,28.923-22.445
				c26.327-15.201,59.932-6.192,75.131,20.132c15.163,26.264,6.133,59.967-20.131,75.131c-7.303,4.216-19.659,9.255-33.9,13.825
				c-18.482,5.931-18.446,32.167,0,38.087c14.243,4.571,26.598,9.61,33.899,13.825C449.193,304.032,458.224,337.736,443.06,364z"/>
			<path d="M256,176c-44.112,0-80,35.888-80,80s35.888,80,80,80s80-35.888,80-80S300.112,176,256,176z M256,296
				c-22.056,0-40-17.944-40-40c0-22.056,17.944-40,40-40c22.056,0,40,17.944,40,40C296,278.056,278.056,296,256,296z"/>
		</g>
	</g>
</g>
<g>
</g>
<g>
</g>
<g>
</g>
<g>
</g>
<g>
</g>
<g>
</g>
<g>
</g>
<g>
</g>
<g>
</g>
<g>
</g>
<g>
</g>
<g>
</g>
<g>
</g>
<g>
</g>
<g>
</g>
</svg>
